<?xml version="1.0" encoding="utf-8"?>
<!-- Generator: Adobe Illustrator 27.5.0, SVG Export Plug-In . SVG Version: 6.00 Build 0)  -->
<svg version="1.1" id="Layer_1" xmlns="http://www.w3.org/2000/svg" xmlns:xlink="http://www.w3.org/1999/xlink" x="0px" y="0px"
	 viewBox="0 0 531.681 549.705" style="enable-background:new 0 0 531.681 549.705;" xml:space="preserve">
<g>
	<g>
		<path style="fill:#FBE57E;" d="M474.269,46.579H26.628c-10.302,0-18.653,8.351-18.653,18.653v451.827
			c0,13.476,10.925,24.401,24.401,24.401h465.411c14.315,0,25.919-11.604,25.919-25.919V88.625
			C520.459,86.377,483.101,54.292,474.269,46.579z"/>
		<path style="fill:#FBE57E;" d="M496.109,108.007c2.071-0.567,4.101-1.294,6.066-2.147c5.918-2.568,11.531-6.139,16.115-10.699
			c1.983-1.973,3.819-4.215,5.233-6.672c-3.951-2.901-37.011-31.271-47.749-40.601c1.115,2.068,2.141,4.184,3.192,6.284
			c1.169,2.336,2.412,4.627,3.513,6.997c1.366,2.942,2.622,5.933,3.866,8.928c2.422,5.831,4.434,11.787,6.018,17.903
			c1.54,5.95,2.704,12.015,3.446,18.129C495.918,106.755,496.012,107.381,496.109,108.007z"/>
		<path style="fill:#FBE57E;" d="M474.269,46.579c0,0,22.585,28.255,23.27,58.039c0,0,20.838-8.365,26.167-15.994
			C523.706,88.625,487.497,54.635,474.269,46.579z"/>
	</g>
	<g>
		<g>
			<path style="fill:#628C3D;" d="M66.507,46.618c1.815-9.669,5.935-17.425,12.082-22.475c6.639-5.455,15.339-7.319,24.497-5.25
				c21.328,4.813,22.127,33.467,22.152,34.839l-2.365,112.084c-0.275,10.822-3.712,18.858-9.676,22.606
				c-5.069,3.186-11.672,3.101-19.11-0.247c-16.089-7.246-14.354-29.71-14.334-29.936c0.013-0.151,0.019-0.302,0.018-0.453
				L79.25,80.594c-0.019-2.71-2.231-4.892-4.94-4.874c-2.71,0.019-4.891,2.23-4.874,4.94l0.519,76.997
				c-0.092,1.385-0.395,7.938,1.455,15.462c2.822,11.479,9.269,19.779,18.646,24.002c10.421,4.694,20.491,4.554,28.361-0.392
				c8.837-5.554,13.903-16.452,14.265-30.686l2.366-112.186c0.001-0.043,0.001-0.086,0.001-0.129
				c-0.002-0.379-0.089-9.402-3.598-19.258c-4.265-11.981-11.747-20.141-21.784-23.845c-1.423-0.525-2.896-0.96-4.421-1.305
				c-12.177-2.751-23.857-0.18-32.889,7.24c-8.351,6.861-13.759,17.276-15.799,30.058H66.507z"/>
			<path style="fill:#0695CF;" d="M66.507,46.618c1.815-9.669,5.935-17.425,12.082-22.475c6.639-5.455,15.339-7.319,24.497-5.25
				c21.328,4.813,22.127,33.467,22.152,34.839l-2.365,112.084c-0.275,10.822-3.712,18.858-9.676,22.606
				c-5.069,3.186-11.672,3.101-19.11-0.247c-16.089-7.246-14.354-29.71-14.334-29.936c0.013-0.151,0.019-0.302,0.018-0.453
				L79.25,80.594c-0.019-2.71-2.231-4.892-4.94-4.874c-2.71,0.019-4.891,2.23-4.874,4.94l0.519,76.997
				c-0.092,1.385-0.395,7.938,1.455,15.462c2.822,11.479,9.269,19.779,18.646,24.002c10.421,4.694,20.491,4.554,28.361-0.392
				c8.837-5.554,13.903-16.452,14.265-30.686l2.366-112.186c0.001-0.043,0.001-0.086,0.001-0.129
				c-0.002-0.379-0.089-9.402-3.598-19.258c-4.265-11.981-11.747-20.141-21.784-23.845c-1.423-0.525-2.896-0.96-4.421-1.305
				c-12.177-2.751-23.857-0.18-32.889,7.24c-8.351,6.861-13.759,17.276-15.799,30.058H66.507z"/>
			<path style="fill:#7BCFEE;" d="M61.056,46.618c1.233-9.412,4.282-19.311,4.282-19.311c-3.781,5.223-5.686,13.104-6.642,19.311
				H61.056z"/>
			<path style="fill:#7BCFEE;" d="M90.693,194.878c-1.289-1.69-0.498-0.19-0.726-0.336c-0.131-0.084-0.296-0.191-0.491-0.323
				c-2.919-1.961-12.605-9.163-15.273-19.985c-3.153-12.792-2.787-90.275-2.787-90.275s-0.181-3.764,1.237-4.027
				c1.418-0.263,3.207,82.775,3.207,82.775s-0.074,18.387,15.433,28.721C104.346,200.127,92.191,196.842,90.693,194.878z"/>
		</g>
		<path style="fill:#39558D;" d="M122.348,181.161c-0.004-0.006-0.008-0.013-0.012-0.02c1.529-6.55,1.667-13.516,1.667-13.516
			s6.46-109.903,0.306-129.384S101.89,16.277,98.09,15.554c-3.801-0.723-0.285-2.682-0.285-2.682
			c12.825-2.748,23.76,10.403,23.76,10.403c10.418,13.714,9.787,34.226,9.787,34.226s-3.176,111.189-4.617,120.24
			c-0.284,1.784-0.877,3.419-1.641,4.899C123.948,183.101,122.925,182.029,122.348,181.161z"/>
	</g>
</g>
</svg>
