<svg xmlns="http://www.w3.org/2000/svg" version="1.0" preserveAspectRatio="xMidYMid meet" viewBox="15 17.42 328.06 357.97">

<g transform="translate(0.000000,400.000000) scale(0.100000,-0.100000)" fill="#000000" stroke="none">
<path d="M3030 3780 c-1 -118 -59 -318 -146 -499 -139 -291 -347 -508 -569 -593 l-55 -21 0 -156 0 -156 169 -295 c94 -162 178 -303 188 -314 20 -20 248 -156 263 -156 12 0 75 132 128 265 76 193 144 463 179 710 14 100 18 191 18 395 -1 281 -14 400 -66 590 -25 89 -87 261 -100 275 -5 5 -9 -13 -9 -45z"/>
<path d="M2040 2663 c-577 -55 -1167 -295 -1581 -642 -109 -91 -309 -307 -309 -334 0 -3 28 7 63 23 162 75 365 113 607 114 202 0 302 -15 443 -70 89 -34 207 -104 241 -142 11 -12 25 -22 32 -22 7 0 71 34 142 75 l130 76 78 137 c43 75 122 213 176 306 l98 169 0 158 0 159 -42 -2 c-24 0 -59 -3 -78 -5z"/>
<path d="M2133 2062 c-52 -28 -76 -68 -81 -133 -4 -47 0 -65 17 -93 51 -81 152 -104 231 -52 97 64 95 213 -5 271 -50 30 -115 32 -162 7z"/>
<path d="M1809 1632 c-24 -16 -83 -50 -131 -77 -49 -27 -88 -52 -88 -56 0 -12 97 -154 158 -231 372 -466 931 -849 1419 -973 112 -28 256 -54 263 -48 3 3 -6 14 -20 24 -252 198 -432 439 -534 712 -53 141 -73 311 -53 463 l8 60 -53 29 c-29 16 -89 50 -133 77 l-80 48 -356 0 -355 0 -45 -28z"/>
</g>
</svg>